<svg id="Layer_1" data-name="Layer 1" xmlns="http://www.w3.org/2000/svg" viewBox="0 0 107.26 40.84"><defs><style>.cls-1{fill:none;stroke:#23134a;stroke-linecap:round;stroke-miterlimit:10;stroke-width:3.65px;}.cls-2{fill:#23134a;}.cls-3{opacity:0.5;}.cls-4{fill:#f37272;}</style></defs>
<path class="cls-1" d="M42.92,39S53.51,26.67,53.51,19.41"/>
<path class="cls-1" d="M64.1,39S53.51,26.67,53.51,19.41"/>
<path class="cls-2" d="M53.51,12.14c-5.84.58-10.59-.09-10.59,3.59s7.53,7.44,10.59,7.44S64.1,19.41,64.1,15.73,59.72,11.53,53.51,12.14Z"/><g class="cls-3">
<path class="cls-4" d="M13.82,21.8c-2.28,3.26-5.67,5.4-9.22,7A16.84,16.84,0,0,1,.86,30,.72.72,0,0,1,0,29.44a.74.74,0,0,1,.14-.58A17,17,0,0,1,3,26.1a29.29,29.29,0,0,1,10.16-5.25.64.64,0,0,1,.7.95Z"/></g><g class="cls-3">
<path class="cls-4" d="M22.62,24.72a78.52,78.52,0,0,1-14,8.91,50.18,50.18,0,0,1-5.12,2.25.71.71,0,0,1-.77-1.12,35.52,35.52,0,0,1,8.89-6.93,34.37,34.37,0,0,1,10.49-4.19.61.61,0,0,1,.48,1.08Z"/></g><g class="cls-3">
<path class="cls-4" d="M24.72,29.54A25.49,25.49,0,0,1,14.62,37a17.32,17.32,0,0,1-4.11,1.22.71.71,0,0,1-.81-.6A.68.68,0,0,1,9.88,37,24.29,24.29,0,0,1,13,34.23a34.94,34.94,0,0,1,11-5.66.63.63,0,0,1,.67,1Z"/></g><g class="cls-3">
<path class="cls-4" d="M96.23,21.8c-2.28,3.26-5.67,5.4-9.21,7A17.1,17.1,0,0,1,83.27,30a.71.71,0,0,1-.84-.58.78.78,0,0,1,.13-.58,17.42,17.42,0,0,1,2.81-2.76,29.33,29.33,0,0,1,10.17-5.25.63.63,0,0,1,.69.95Z"/></g><g class="cls-3">
<path class="cls-4" d="M105,24.72a79,79,0,0,1-14,8.91A51,51,0,0,1,86,35.88a.7.7,0,0,1-.9-.42.73.73,0,0,1,.12-.7,35.39,35.39,0,0,1,8.9-6.93,34.31,34.31,0,0,1,10.48-4.19.62.62,0,0,1,.49,1.08Z"/></g><g class="cls-3">
<path class="cls-4" d="M107.14,29.54A25.52,25.52,0,0,1,97,37a17.38,17.38,0,0,1-4.1,1.22A.72.72,0,0,1,92.29,37a24.37,24.37,0,0,1,3.16-2.8,34.78,34.78,0,0,1,11-5.66.63.63,0,0,1,.68,1Z"/></g>
<path class="cls-2" d="M101,.81c2.21,6.13-.68,13.71-7.44,15.31a11.91,11.91,0,0,1-8.6-.85c-5-3-6.08-9.34-4.53-14.44a1.21,1.21,0,0,1,2.3,0c1.5,5.42,3.06,10.57,9.4,9.24,4.35-.86,5.75-4.91,6.88-9.2a1,1,0,0,1,2-.1Z"/>
<path class="cls-2" d="M8,1c1.36,5.68,3.8,10,9.94,9.18C22.09,9.49,23,4.81,24.25.88A1.19,1.19,0,0,1,26.54.83a14.83,14.83,0,0,1,.66,4.86c-.15,14.78-21.35,14.16-21.92,0,0-1.28,0-6.16,2-5.52A1.08,1.08,0,0,1,8,1Z"/>
</svg>