<svg id="Layer_1" data-name="Layer 1" xmlns="http://www.w3.org/2000/svg" viewBox="0 0 107.26 45.44"><defs><style>.cls-1{fill:#23134a;}.cls-2{fill:none;stroke:#23134a;stroke-linecap:round;stroke-miterlimit:10;stroke-width:3.65px;}.cls-3{opacity:0.5;}.cls-4{fill:#d6a6a6;}</style></defs>
<path class="cls-1" d="M102.2,11.05C100.75-8.16,72.66.15,81,17.15,86.84,27.14,102.37,22.46,102.2,11.05Z"/>
<path class="cls-2" d="M30.84,30.75c0,4.64,2,12.87,12.08,12.87S53.51,31.27,53.51,24"/>
<path class="cls-2" d="M76.18,30.75c0,4.64-2,12.87-12.08,12.87S53.51,31.27,53.51,24"/>
<path class="cls-1" d="M53.51,16.75c-5.84.57-10.59-.09-10.59,3.58s7.53,7.44,10.59,7.44S64.1,24,64.1,20.33,59.72,16.13,53.51,16.75Z"/><g class="cls-3">
<path class="cls-4" d="M13.82,26.4c-2.28,3.27-5.67,5.41-9.22,7A17.38,17.38,0,0,1,.86,34.63.73.73,0,0,1,0,34a.71.71,0,0,1,.14-.57A16.64,16.64,0,0,1,3,30.71a29.23,29.23,0,0,1,10.16-5.26.64.64,0,0,1,.7.95Z"/></g><g class="cls-3">
<path class="cls-4" d="M22.62,29.32a78.52,78.52,0,0,1-14,8.91,48.06,48.06,0,0,1-5.12,2.25.7.7,0,0,1-.89-.42.68.68,0,0,1,.12-.69,35.52,35.52,0,0,1,8.89-6.93,34.39,34.39,0,0,1,10.49-4.2.61.61,0,0,1,.48,1.08Z"/></g><g class="cls-3">
<path class="cls-4" d="M24.72,34.15a25.47,25.47,0,0,1-10.1,7.45,17.33,17.33,0,0,1-4.11,1.23.71.71,0,0,1-.81-.61.69.69,0,0,1,.18-.59A23.49,23.49,0,0,1,13,38.84a34.73,34.73,0,0,1,11-5.66.63.63,0,0,1,.67,1Z"/></g><g class="cls-3">
<path class="cls-4" d="M96.23,26.4c-2.28,3.27-5.67,5.41-9.21,7a17.65,17.65,0,0,1-3.75,1.19.72.72,0,0,1-.84-.59.74.74,0,0,1,.13-.57,17,17,0,0,1,2.81-2.76,29.19,29.19,0,0,1,10.17-5.26.63.63,0,0,1,.69.95Z"/></g><g class="cls-3">
<path class="cls-4" d="M105,29.32a78.6,78.6,0,0,1-14,8.91A48.8,48.8,0,0,1,86,40.48a.7.7,0,0,1-.78-1.11,35.57,35.57,0,0,1,8.9-6.93,34.33,34.33,0,0,1,10.48-4.2.62.62,0,0,1,.49,1.08Z"/></g><g class="cls-3">
<path class="cls-4" d="M107.14,34.15A25.5,25.5,0,0,1,97,41.6a17.39,17.39,0,0,1-4.1,1.23.72.72,0,0,1-.64-1.2,23.56,23.56,0,0,1,3.16-2.79,34.68,34.68,0,0,1,11-5.66.63.63,0,0,1,.68,1Z"/></g>
<path class="cls-1" d="M27.22,11.05C25.78-8.16-2.31.15,6,17.15,11.86,27.14,27.4,22.46,27.22,11.05Z"/>
</svg>