<svg id="Layer_1" data-name="Layer 1" xmlns="http://www.w3.org/2000/svg" viewBox="0 0 108.74 52.33"><defs><style>.cls-1{fill:none;stroke:#23134a;stroke-linecap:round;stroke-miterlimit:10;stroke-width:3.65px;}.cls-2{fill:#23134a;}.cls-3{opacity:0.5;}.cls-4{fill:#f37272;}.cls-5{fill:#9cdcf9;}.cls-6{fill:#fff;}</style></defs><line class="cls-1" x1="54.49" y1="26.79" x2="54.49" y2="34.05"/>
<path class="cls-2" d="M103.06,11.05c-1.45-19.21-29.54-10.9-21.2,6.1C87.7,27.14,103.23,22.46,103.06,11.05Z"/>
<path class="cls-2" d="M5.68,11.05C7.13-8.16,35.21.15,26.88,17.15,21,27.14,5.5,22.46,5.68,11.05Z"/>
<path class="cls-2" d="M54.37,16.75c-5.84.57-10.59-.09-10.59,3.58s7.53,7.44,10.59,7.44S65,24,65,20.33,60.58,16.13,54.37,16.75Z"/><g class="cls-3">
<path class="cls-4" d="M14.68,26.4c-2.28,3.27-5.67,5.41-9.22,7a17.38,17.38,0,0,1-3.74,1.19A.73.73,0,0,1,.87,34,.71.71,0,0,1,1,33.47a16.64,16.64,0,0,1,2.81-2.76A29.14,29.14,0,0,1,14,25.45a.64.64,0,0,1,.7.95Z"/></g><g class="cls-3">
<path class="cls-4" d="M23.48,29.32a78.52,78.52,0,0,1-14,8.91,48.06,48.06,0,0,1-5.12,2.25.7.7,0,0,1-.89-.42.68.68,0,0,1,.12-.69,35.52,35.52,0,0,1,8.89-6.93A34.39,34.39,0,0,1,23,28.24a.61.61,0,0,1,.48,1.08Z"/></g><g class="cls-3">
<path class="cls-4" d="M25.58,34.15a25.47,25.47,0,0,1-10.1,7.45,17.33,17.33,0,0,1-4.11,1.23.71.71,0,0,1-.81-.61.69.69,0,0,1,.18-.59,23.49,23.49,0,0,1,3.15-2.79,34.73,34.73,0,0,1,11-5.66.63.63,0,0,1,.67,1Z"/></g><g class="cls-3">
<path class="cls-4" d="M97.09,26.4c-2.28,3.27-5.67,5.41-9.21,7a17.65,17.65,0,0,1-3.75,1.19.72.72,0,0,1-.84-.59.74.74,0,0,1,.13-.57,17,17,0,0,1,2.81-2.76A29.19,29.19,0,0,1,96.4,25.45a.63.63,0,0,1,.69.95Z"/></g><g class="cls-3">
<path class="cls-4" d="M105.9,29.32a79,79,0,0,1-14,8.91,48.8,48.8,0,0,1-5.11,2.25A.7.7,0,0,1,86,39.37a35.39,35.39,0,0,1,8.9-6.93,34.33,34.33,0,0,1,10.48-4.2.62.62,0,0,1,.49,1.08Z"/></g><g class="cls-3">
<path class="cls-4" d="M108,34.15A25.5,25.5,0,0,1,97.89,41.6a17.39,17.39,0,0,1-4.1,1.23.72.72,0,0,1-.64-1.2,23.56,23.56,0,0,1,3.16-2.79,34.58,34.58,0,0,1,11-5.66.63.63,0,0,1,.68,1Z"/></g>
<path class="cls-5" d="M12.83,18a20.83,20.83,0,0,0-3.2-.81,17.35,17.35,0,0,0-1.9-.41c-1.9-.29-4.49-.64-6.15.55A3.93,3.93,0,0,0,.14,21.53c.5,1.81,2.32,2.71,4,3a22.91,22.91,0,0,0,7.11.06c1.7-.23,3.61-.79,4.23-2.59C16.25,19.87,14.66,18.65,12.83,18Z"/>
<path class="cls-5" d="M93.22,22c.63,1.8,2.53,2.36,4.24,2.59a22.85,22.85,0,0,0,7.1-.06c1.72-.31,3.53-1.21,4-3a3.94,3.94,0,0,0-1.44-4.17c-1.67-1.19-4.26-.84-6.15-.55a17.35,17.35,0,0,0-1.9.41,20.54,20.54,0,0,0-3.2.81C94.08,18.65,92.49,19.87,93.22,22Z"/>
<path class="cls-2" d="M70.68,47.61c0,6.3-8.1,6-9.12.75-.86-4.46-5.47-4.83-6.87-4.83h-.4c-1.41,0-6,.37-6.87,4.83-1,5.27-9.13,5.55-9.13-.75,0-6,1.63-12.9,10.14-15a24.51,24.51,0,0,1,6.06-.68,24.51,24.51,0,0,1,6.06.68C69.06,34.71,70.68,41.58,70.68,47.61Z"/>
<path class="cls-6" d="M60.55,32.57c-.77,2.43-2.14,6.6-2.74,7.06a4,4,0,0,1-1.67.54,15.73,15.73,0,0,1-1.57.12h-.16c-.57,0-2.53-.1-3.25-.66s-2-4.63-2.73-7.06a24.51,24.51,0,0,1,6.06-.68A24.51,24.51,0,0,1,60.55,32.57Z"/>
</svg>