<svg id="Layer_1" data-name="Layer 1" xmlns="http://www.w3.org/2000/svg" viewBox="0 0 114.36 41.11"><defs><style>.cls-1{fill:#23134a;}.cls-2{opacity:0.5;}.cls-3{fill:#f37272;}.cls-4{fill:none;stroke:#23134a;stroke-linecap:round;stroke-miterlimit:10;stroke-width:3.65px;}</style></defs>
<path class="cls-1" d="M57.18,15c-5.84.57-10.59-.09-10.59,3.58S54.12,26,57.18,26s10.59-3.76,10.59-7.44S63.39,14.4,57.18,15Z"/><g class="cls-2">
<path class="cls-3" d="M17.49,24.67c-2.28,3.27-5.67,5.41-9.22,7A17.38,17.38,0,0,1,4.53,32.9a.74.74,0,0,1-.85-.59.71.71,0,0,1,.14-.57A16.64,16.64,0,0,1,6.63,29a29.23,29.23,0,0,1,10.16-5.26.63.63,0,0,1,.7,1Z"/></g><g class="cls-2">
<path class="cls-3" d="M26.29,27.59a78.52,78.52,0,0,1-14,8.91,48.8,48.8,0,0,1-5.11,2.25.7.7,0,0,1-.78-1.11,35.39,35.39,0,0,1,8.9-6.93,34.23,34.23,0,0,1,10.48-4.2.61.61,0,0,1,.48,1.08Z"/></g><g class="cls-2">
<path class="cls-3" d="M28.4,32.42a25.57,25.57,0,0,1-10.11,7.45,17.33,17.33,0,0,1-4.11,1.23.72.72,0,0,1-.81-.61.74.74,0,0,1,.18-.59,23.49,23.49,0,0,1,3.15-2.79,34.73,34.73,0,0,1,11-5.66.63.63,0,0,1,.68,1Z"/></g><g class="cls-2">
<path class="cls-3" d="M99.91,24.67c-2.29,3.27-5.68,5.41-9.22,7A17.56,17.56,0,0,1,87,32.9a.73.73,0,0,1-.85-.59.71.71,0,0,1,.14-.57A16.27,16.27,0,0,1,89.05,29a29.14,29.14,0,0,1,10.16-5.26.64.64,0,0,1,.7,1Z"/></g><g class="cls-2">
<path class="cls-3" d="M108.71,27.59a78.24,78.24,0,0,1-14,8.91,47.9,47.9,0,0,1-5.11,2.25.71.71,0,0,1-.9-.42.69.69,0,0,1,.13-.69,35.35,35.35,0,0,1,8.89-6.93,34.44,34.44,0,0,1,10.48-4.2.62.62,0,0,1,.49,1.08Z"/></g><g class="cls-2">
<path class="cls-3" d="M110.81,32.42a25.54,25.54,0,0,1-10.1,7.45A17.33,17.33,0,0,1,96.6,41.1a.72.72,0,0,1-.82-.61A.74.74,0,0,1,96,39.9a23.56,23.56,0,0,1,3.16-2.79,34.63,34.63,0,0,1,11-5.66.63.63,0,0,1,.67,1Z"/></g>
<path class="cls-1" d="M8.57,6.39a12.31,12.31,0,0,0,1.13,9c5.83,10,21.37,5.31,21.2-6.1a16.91,16.91,0,0,0-.48-2.93Z"/>
<path class="cls-1" d="M1.14.27c-1.53,1.09-1.5,8.78,0,9.13s36.38,0,37.3-.7.69-6.23,0-6.47S2.75-.88,1.14.27Z"/>
<path class="cls-1" d="M83.94,6.39a16.94,16.94,0,0,0-.47,2.93c-.18,11.41,15.36,16.09,21.19,6.1a12.31,12.31,0,0,0,1.13-9Z"/>
<path class="cls-1" d="M113.22.27c1.53,1.09,1.51,8.78,0,9.13s-36.37,0-37.3-.7-.69-6.23,0-6.47S111.61-.88,113.22.27Z"/><line class="cls-4" x1="57.18" y1="20.42" x2="57.18" y2="30.52"/><line class="cls-4" x1="62.23" y1="31.93" x2="52.13" y2="31.93"/>
</svg>