<svg id="Layer_1" data-name="Layer 1" xmlns="http://www.w3.org/2000/svg" viewBox="0 0 107.26 50.49"><defs><style>.cls-1{fill:none;stroke:#23134a;stroke-linecap:round;stroke-miterlimit:10;stroke-width:3.65px;}.cls-2{fill:#23134a;}.cls-3{opacity:0.5;}.cls-4{fill:#f37272;}.cls-5{fill:#fff;}</style></defs><line class="cls-1" x1="53.63" y1="24.29" x2="53.63" y2="34.39"/>
<path class="cls-2" d="M53.51,16.1c-5.84.58-10.59-.09-10.59,3.59s7.53,7.44,10.59,7.44S64.1,23.37,64.1,19.69,59.72,15.49,53.51,16.1Z"/><g class="cls-3">
<path class="cls-4" d="M13.82,25.76c-2.28,3.26-5.67,5.4-9.22,7A16.84,16.84,0,0,1,.86,34,.73.73,0,0,1,0,33.4a.74.74,0,0,1,.14-.58A17,17,0,0,1,3,30.06a29.38,29.38,0,0,1,10.16-5.25.64.64,0,0,1,.7,1Z"/></g><g class="cls-3">
<path class="cls-4" d="M22.62,28.67a78,78,0,0,1-14,8.92,50.18,50.18,0,0,1-5.12,2.25.71.71,0,0,1-.77-1.12,35.52,35.52,0,0,1,8.89-6.93A34.37,34.37,0,0,1,22.14,27.6a.61.61,0,0,1,.48,1.07Z"/></g><g class="cls-3">
<path class="cls-4" d="M24.72,33.5A25.49,25.49,0,0,1,14.62,41a17.32,17.32,0,0,1-4.11,1.22.71.71,0,0,1-.81-.61A.67.67,0,0,1,9.88,41,23.57,23.57,0,0,1,13,38.19a34.94,34.94,0,0,1,11-5.66.63.63,0,0,1,.67,1Z"/></g><g class="cls-3">
<path class="cls-4" d="M96.23,25.76C94,29,90.56,31.16,87,32.79A17.1,17.1,0,0,1,83.27,34a.72.72,0,0,1-.84-.58.78.78,0,0,1,.13-.58,17.42,17.42,0,0,1,2.81-2.76,29.33,29.33,0,0,1,10.17-5.25.63.63,0,0,1,.69,1Z"/></g><g class="cls-3">
<path class="cls-4" d="M105,28.67a78.44,78.44,0,0,1-14,8.92A51,51,0,0,1,86,39.84a.7.7,0,0,1-.9-.43.71.71,0,0,1,.12-.69,35.39,35.39,0,0,1,8.9-6.93,34.31,34.31,0,0,1,10.48-4.19.61.61,0,0,1,.49,1.07Z"/></g><g class="cls-3">
<path class="cls-4" d="M107.14,33.5A25.52,25.52,0,0,1,97,41a17.38,17.38,0,0,1-4.1,1.22.72.72,0,0,1-.82-.61.71.71,0,0,1,.18-.58,23.65,23.65,0,0,1,3.16-2.8,34.89,34.89,0,0,1,11-5.66.63.63,0,0,1,.68,1Z"/></g>
<path class="cls-2" d="M11.18.12A86.57,86.57,0,0,1,28.41,12.71a3.1,3.1,0,0,1,.24,4.43,3,3,0,0,1-1.53.91c-2.94.75-5.91,1.39-8.92,1.87A61.22,61.22,0,0,1,9,20.79a1.21,1.21,0,0,1-.6-2.26,45.81,45.81,0,0,1,4.17-2,93.47,93.47,0,0,1,13-4.47l-1.29,5.34A86.46,86.46,0,0,1,9.83,1.63,1.06,1.06,0,0,1,11.18.12Z"/>
<path class="cls-2" d="M4.65,9.86Q15.85,10.45,27,12a3.13,3.13,0,0,1-.91,6.2C22.32,17.28,18.66,16.11,15,15S7.85,12.77,4.33,11.47a.83.83,0,0,1,.32-1.61Z"/>
<path class="cls-2" d="M97.19,1.63A86.51,86.51,0,0,1,82.76,17.36L81.48,12a92.89,92.89,0,0,1,12.94,4.47,43.38,43.38,0,0,1,4.17,2A1.21,1.21,0,0,1,98,20.79a44.62,44.62,0,0,1-4.64-.27,92,92,0,0,1-13.47-2.47,3.09,3.09,0,0,1-2.24-3.77,3.17,3.17,0,0,1,.95-1.57q2-1.79,4-3.48A76.57,76.57,0,0,1,95.84.12a1.06,1.06,0,0,1,1.35,1.51Z"/>
<path class="cls-2" d="M102.69,11.47Q92.13,15.24,81.3,18.1A3.13,3.13,0,0,1,79.75,12c3.78-.62,7.61-.95,11.43-1.35s7.44-.67,11.19-.83a.83.83,0,0,1,.32,1.61Z"/>
<path class="cls-2" d="M66.85,48.13c-3.78,1.95-21.31,4.46-26.88-.69s-1.24-13,2.09-14.76a16.16,16.16,0,0,1,5.06-1.28,54.24,54.24,0,0,1,13.09.12,27.23,27.23,0,0,1,5.24,1.16C71.86,34.91,70.62,46.18,66.85,48.13Z"/>
<path class="cls-5" d="M60.21,31.52c-.23.77-2.46,8.12-3.26,8.75s-2.67.64-3.24.66h-.16c-.57,0-2.53-.1-3.25-.66S47,31.45,47,31.45l.1-.05A54.24,54.24,0,0,1,60.21,31.52Z"/>
</svg>