<svg id="Layer_1" data-name="Layer 1" xmlns="http://www.w3.org/2000/svg" viewBox="0 0 107.26 57.82"><defs><style>.cls-1{fill:#23134a;}.cls-2{fill:#fff;}.cls-3{fill:none;stroke:#23134a;stroke-linecap:round;stroke-miterlimit:10;stroke-width:3.65px;}.cls-4{opacity:0.5;}.cls-5{fill:#f37272;}</style></defs>
<path class="cls-1" d="M64.36,43.33S55.22,41.92,53.64,26.5C52.06,41.92,42.92,43.33,42.92,43.33,42.17,49.25,44,52.84,46.34,55a10.84,10.84,0,0,0,14.6,0C63.29,52.84,65.11,49.25,64.36,43.33Z"/>
<path class="cls-2" d="M60.16,42.5c-4.76-1.92-6.55-10.26-6.55-10.26h-.1S51.72,40.58,47,42.5c0,0,2.44,8.16,3.28,8.82s2.68.65,3.25.66h.16c.57,0,2.53-.1,3.25-.66S60.16,42.5,60.16,42.5Z"/>
<path class="cls-3" d="M30.84,30.46c0,4.64,2,12.87,12.08,12.87S53.51,31,53.51,23.72"/>
<path class="cls-3" d="M76.18,30.46c0,4.64-2,12.87-12.08,12.87S53.51,31,53.51,23.72"/>
<path class="cls-1" d="M53.51,16.46c-5.84.57-10.59-.09-10.59,3.59s7.53,7.44,10.59,7.44S64.1,23.72,64.1,20.05,59.72,15.84,53.51,16.46Z"/><g class="cls-4">
<path class="cls-5" d="M13.82,26.11c-2.28,3.27-5.67,5.41-9.22,7A17.38,17.38,0,0,1,.86,34.34.73.73,0,0,1,0,33.76a.74.74,0,0,1,.14-.58A16.64,16.64,0,0,1,3,30.42a29.14,29.14,0,0,1,10.16-5.26.64.64,0,0,1,.7.95Z"/></g><g class="cls-4">
<path class="cls-5" d="M22.62,29a78,78,0,0,1-14,8.91,48.06,48.06,0,0,1-5.12,2.25.7.7,0,0,1-.77-1.11,35.52,35.52,0,0,1,8.89-6.93A34.39,34.39,0,0,1,22.14,28,.61.61,0,0,1,22.62,29Z"/></g><g class="cls-4">
<path class="cls-5" d="M24.72,33.86a25.47,25.47,0,0,1-10.1,7.45,16.88,16.88,0,0,1-4.11,1.23.71.71,0,0,1-.81-.61.7.7,0,0,1,.18-.59A23.49,23.49,0,0,1,13,38.55a34.73,34.73,0,0,1,11-5.66.63.63,0,0,1,.67,1Z"/></g><g class="cls-4">
<path class="cls-5" d="M96.23,26.11c-2.28,3.27-5.67,5.41-9.21,7a17.65,17.65,0,0,1-3.75,1.19.72.72,0,0,1-.84-.58.78.78,0,0,1,.13-.58,17,17,0,0,1,2.81-2.76,29.19,29.19,0,0,1,10.17-5.26.63.63,0,0,1,.69.95Z"/></g><g class="cls-4">
<path class="cls-5" d="M105,29a78.39,78.39,0,0,1-14,8.91A48.8,48.8,0,0,1,86,40.19a.7.7,0,0,1-.9-.42.71.71,0,0,1,.12-.69,35.39,35.39,0,0,1,8.9-6.93A34.33,34.33,0,0,1,104.55,28,.62.62,0,0,1,105,29Z"/></g><g class="cls-4">
<path class="cls-5" d="M107.14,33.86A25.5,25.5,0,0,1,97,41.31a16.94,16.94,0,0,1-4.1,1.23.72.72,0,0,1-.82-.61.74.74,0,0,1,.18-.59,23.56,23.56,0,0,1,3.16-2.79,34.58,34.58,0,0,1,11-5.66.63.63,0,0,1,.68,1Z"/></g>
<path class="cls-1" d="M6,15.74C3.77,9.61,6.66,2,13.41.42A12,12,0,0,1,22,1.28c5.05,3,6.08,9.33,4.52,14.44a1.2,1.2,0,0,1-2.29-.05c-1.5-5.42-3.06-10.57-9.4-9.24C10.49,7.29,9.1,11.34,8,15.64a1,1,0,0,1-2,.1Z"/>
<path class="cls-1" d="M99,15.53c-1.36-5.68-3.8-10-9.94-9.18-4.16.71-5.1,5.38-6.31,9.31a1.2,1.2,0,0,1-1.47.84,1.25,1.25,0,0,1-.83-.78,14.92,14.92,0,0,1-.65-4.87c.14-14.77,21.35-14.15,21.92,0,0,1.29,0,6.16-2,5.52a1,1,0,0,1-.69-.83Z"/>
</svg>