<svg id="Layer_1" data-name="Layer 1" xmlns="http://www.w3.org/2000/svg" viewBox="0 0 107.26 43.41"><defs><style>.cls-1{fill:#23134a;}.cls-2{opacity:0.5;}.cls-3{fill:#4c3535;}.cls-4{fill:none;stroke:#23134a;stroke-linecap:round;stroke-miterlimit:10;stroke-width:3.65px;}.cls-5{fill:#fff;}</style></defs>
<path class="cls-1" d="M27.22,11.33a14,14,0,0,0-1.53-5.86c-5.84-10-21.38-5.31-21.2,6.1v0a2.38,2.38,0,0,0,2.4,2.18H24.82A2.4,2.4,0,0,0,27.22,11.33Z"/>
<path class="cls-1" d="M53.51,10.51c-5.84.58-10.59-.09-10.59,3.59s7.53,7.44,10.59,7.44S64.1,17.78,64.1,14.1,59.72,9.9,53.51,10.51Z"/><g class="cls-2">
<path class="cls-3" d="M13.82,20.17c-2.28,3.26-5.67,5.4-9.22,7A16.84,16.84,0,0,1,.86,28.39.72.72,0,0,1,0,27.81a.74.74,0,0,1,.14-.58A17,17,0,0,1,3,24.47a29.38,29.38,0,0,1,10.16-5.25.64.64,0,0,1,.7,1Z"/></g><g class="cls-2">
<path class="cls-3" d="M22.62,23.09A78.52,78.52,0,0,1,8.65,32a50.18,50.18,0,0,1-5.12,2.25.71.71,0,0,1-.77-1.12,35.52,35.52,0,0,1,8.89-6.93A34.37,34.37,0,0,1,22.14,22a.61.61,0,0,1,.48,1.08Z"/></g><g class="cls-2">
<path class="cls-3" d="M24.72,27.91a25.49,25.49,0,0,1-10.1,7.46,17.32,17.32,0,0,1-4.11,1.22A.71.71,0,0,1,9.7,36a.68.68,0,0,1,.18-.59A24.29,24.29,0,0,1,13,32.6a34.94,34.94,0,0,1,11-5.66.63.63,0,0,1,.67,1Z"/></g><g class="cls-2">
<path class="cls-3" d="M96.23,20.17c-2.28,3.26-5.67,5.4-9.21,7a17.1,17.1,0,0,1-3.75,1.19.71.71,0,0,1-.84-.58.78.78,0,0,1,.13-.58,17.42,17.42,0,0,1,2.81-2.76,29.33,29.33,0,0,1,10.17-5.25.63.63,0,0,1,.69,1Z"/></g><g class="cls-2">
<path class="cls-3" d="M105,23.09a79,79,0,0,1-14,8.91A51,51,0,0,1,86,34.25a.7.7,0,0,1-.9-.42.73.73,0,0,1,.12-.7,35.39,35.39,0,0,1,8.9-6.93A34.31,34.31,0,0,1,104.55,22a.62.62,0,0,1,.49,1.08Z"/></g><g class="cls-2">
<path class="cls-3" d="M107.14,27.91A25.52,25.52,0,0,1,97,35.37a17.38,17.38,0,0,1-4.1,1.22.72.72,0,0,1-.64-1.19,24.37,24.37,0,0,1,3.16-2.8,34.78,34.78,0,0,1,11-5.66.63.63,0,0,1,.68,1Z"/></g>
<path class="cls-1" d="M102.2,11.33a14,14,0,0,0-1.54-5.86c-5.83-10-21.37-5.31-21.2,6.1v0a2.38,2.38,0,0,0,2.39,2.18H99.79A2.4,2.4,0,0,0,102.2,11.33Z"/><line class="cls-4" x1="53.77" y1="21.49" x2="53.77" y2="33.91"/>
<path class="cls-1" d="M73.08,25.59c0,8.23-2.81,17.82-19.31,17.82S34.46,33.82,34.46,25.59c0-7.12,9.67-6.81,10.88-.84a6.08,6.08,0,0,0,2.24,3.69,10.25,10.25,0,0,0,6,1.79H54a10.23,10.23,0,0,0,6-1.8,6,6,0,0,0,2.23-3.68C63.42,18.78,73.08,18.47,73.08,25.59Z"/>
<path class="cls-5" d="M60,28.43c-.72,2.34-2.24,7-2.87,7.5a3.74,3.74,0,0,1-1.68.54c-.65.09-1.28.12-1.57.13h-.16c-.57,0-2.53-.1-3.25-.67s-2.13-5.15-2.86-7.49a10.25,10.25,0,0,0,6,1.79H54A10.23,10.23,0,0,0,60,28.43Z"/>
</svg>