<svg id="Layer_1" data-name="Layer 1" xmlns="http://www.w3.org/2000/svg" viewBox="0 0 107.26 51.2"><defs><style>.cls-1{fill:#fff;}.cls-2{fill:#23134a;}.cls-3{fill:none;stroke:#23134a;stroke-linecap:round;stroke-miterlimit:10;stroke-width:3.65px;}.cls-4{opacity:0.5;}.cls-5{fill:#f37272;}</style></defs>
<path class="cls-1" d="M60.11,41.72c-4.76-1.92-6.55-10.26-6.55-10.26h-.1s-1.8,8.34-6.56,10.26c0,0,2.44,8.16,3.28,8.82s2.68.65,3.25.66h.16c.57,0,2.53-.1,3.25-.66S60.11,41.72,60.11,41.72Z"/>
<path class="cls-2" d="M6,15.74C3.77,9.61,6.66,2,13.41.42A12,12,0,0,1,22,1.28c5.05,3,6.08,9.33,4.52,14.44a1.2,1.2,0,0,1-2.29-.05c-1.5-5.42-3.06-10.57-9.4-9.24C10.49,7.29,9.1,11.34,8,15.64a1,1,0,0,1-2,.1Z"/>
<path class="cls-2" d="M99,15.53c-1.36-5.68-3.8-10-9.94-9.18-4.16.71-5.1,5.38-6.31,9.31a1.2,1.2,0,0,1-1.47.84,1.25,1.25,0,0,1-.83-.78,14.92,14.92,0,0,1-.65-4.87c.14-14.77,21.35-14.15,21.92,0,0,1.29,0,6.16-2,5.52a1,1,0,0,1-.69-.83Z"/>
<path class="cls-3" d="M30.84,29.85c0,4.64,2,12.87,12.08,12.87s10.59-12.34,10.59-19.6"/>
<path class="cls-3" d="M76.18,29.85c0,4.64-2,12.87-12.08,12.87S53.51,30.38,53.51,23.12"/>
<path class="cls-2" d="M53.51,15.85c-5.84.58-10.59-.09-10.59,3.59s7.53,7.44,10.59,7.44S64.1,23.12,64.1,19.44,59.72,15.24,53.51,15.85Z"/><g class="cls-4">
<path class="cls-5" d="M13.82,25.51c-2.28,3.26-5.67,5.4-9.22,7A17.38,17.38,0,0,1,.86,33.73.73.73,0,0,1,0,33.15a.74.74,0,0,1,.14-.58A17,17,0,0,1,3,29.81a29.38,29.38,0,0,1,10.16-5.25.64.64,0,0,1,.7,1Z"/></g><g class="cls-4">
<path class="cls-5" d="M22.62,28.42a78,78,0,0,1-14,8.92,50.18,50.18,0,0,1-5.12,2.25.71.71,0,0,1-.77-1.12,35.52,35.52,0,0,1,8.89-6.93,34.37,34.37,0,0,1,10.49-4.19.61.61,0,0,1,.48,1.07Z"/></g><g class="cls-4">
<path class="cls-5" d="M24.72,33.25a25.49,25.49,0,0,1-10.1,7.46,17.32,17.32,0,0,1-4.11,1.22.71.71,0,0,1-.81-.61.67.67,0,0,1,.18-.58A23.57,23.57,0,0,1,13,37.94a34.94,34.94,0,0,1,11-5.66.63.63,0,0,1,.67,1Z"/></g><g class="cls-4">
<path class="cls-5" d="M96.23,25.51c-2.28,3.26-5.67,5.4-9.21,7a17.65,17.65,0,0,1-3.75,1.19.72.72,0,0,1-.84-.58.78.78,0,0,1,.13-.58,17.42,17.42,0,0,1,2.81-2.76,29.33,29.33,0,0,1,10.17-5.25.63.63,0,0,1,.69,1Z"/></g><g class="cls-4">
<path class="cls-5" d="M105,28.42a78.44,78.44,0,0,1-14,8.92A51,51,0,0,1,86,39.59a.7.7,0,0,1-.9-.43.71.71,0,0,1,.12-.69,35.39,35.39,0,0,1,8.9-6.93,34.31,34.31,0,0,1,10.48-4.19.61.61,0,0,1,.49,1.07Z"/></g><g class="cls-4">
<path class="cls-5" d="M107.14,33.25A25.52,25.52,0,0,1,97,40.71a17.38,17.38,0,0,1-4.1,1.22.72.72,0,0,1-.82-.61.71.71,0,0,1,.18-.58,23.65,23.65,0,0,1,3.16-2.8,34.89,34.89,0,0,1,11-5.66.63.63,0,0,1,.68,1Z"/></g>
</svg>