<svg id="Layer_1" data-name="Layer 1" xmlns="http://www.w3.org/2000/svg" viewBox="0 0 113.3 56.17"><defs><style>.cls-1{fill:#23134a;}.cls-2{opacity:0.5;}.cls-3{fill:#d6a6a6;}.cls-4{fill:none;stroke:#23134a;stroke-linecap:round;stroke-miterlimit:10;stroke-width:3.65px;}.cls-5{fill:#fff;}.cls-6{fill:#ccc;}</style></defs>
<path class="cls-1" d="M98.65,8.89C93.29,11.66,88,14.66,82.74,17.55a12.85,12.85,0,0,0,1.41,7.77c5.83,10,21.37,5.32,21.19-6.1C104.91,13.51,102.13,10.23,98.65,8.89Z"/>
<path class="cls-1" d="M56.65,24.92c-5.83.57-10.59-.09-10.59,3.59S53.59,36,56.65,36s10.59-3.77,10.59-7.44S62.87,24.31,56.65,24.92Z"/><g class="cls-2">
<path class="cls-3" d="M17,34.58c-2.28,3.26-5.67,5.4-9.21,7A17.65,17.65,0,0,1,4,42.8a.72.72,0,0,1-.84-.58.78.78,0,0,1,.13-.58A17,17,0,0,1,6.1,38.88a29.19,29.19,0,0,1,10.17-5.26.64.64,0,0,1,.69,1Z"/></g><g class="cls-2">
<path class="cls-3" d="M25.77,37.49a78.39,78.39,0,0,1-14,8.91,48.8,48.8,0,0,1-5.11,2.25.69.69,0,0,1-.9-.42.71.71,0,0,1,.12-.69,35.39,35.39,0,0,1,8.9-6.93,34.33,34.33,0,0,1,10.48-4.2.62.62,0,0,1,.49,1.08Z"/></g><g class="cls-2">
<path class="cls-3" d="M27.87,42.32a25.5,25.5,0,0,1-10.11,7.45A16.94,16.94,0,0,1,13.66,51a.72.72,0,0,1-.82-.61A.74.74,0,0,1,13,49.8,23.56,23.56,0,0,1,16.18,47a34.58,34.58,0,0,1,11-5.66.63.63,0,0,1,.68,1Z"/></g><g class="cls-2">
<path class="cls-3" d="M99.38,34.58c-2.29,3.26-5.68,5.4-9.22,7a17.56,17.56,0,0,1-3.74,1.19.73.73,0,0,1-.85-.58.74.74,0,0,1,.14-.58,16.64,16.64,0,0,1,2.81-2.76,29.14,29.14,0,0,1,10.16-5.26.64.64,0,0,1,.7,1Z"/></g><g class="cls-2">
<path class="cls-3" d="M108.18,37.49a78,78,0,0,1-14,8.91,49,49,0,0,1-5.12,2.25.7.7,0,0,1-.77-1.11,35.35,35.35,0,0,1,8.89-6.93,34.39,34.39,0,0,1,10.49-4.2.61.61,0,0,1,.48,1.08Z"/></g><g class="cls-2">
<path class="cls-3" d="M110.28,42.32a25.47,25.47,0,0,1-10.1,7.45A16.88,16.88,0,0,1,96.07,51a.72.72,0,0,1-.82-.61.74.74,0,0,1,.18-.59A23.56,23.56,0,0,1,98.59,47a34.63,34.63,0,0,1,11-5.66.63.63,0,0,1,.67,1Z"/></g>
<path class="cls-1" d="M15.78,10.79a4,4,0,0,1-2.14-1.1C8.75,12.28,5.57,18,9.17,25.32c5.83,10,21.37,5.32,21.2-6.1a15.59,15.59,0,0,0-1.05-4.67A88.92,88.92,0,0,0,15.78,10.79Z"/>
<path class="cls-1" d="M3.93,0C2.09.4-.95,7.46.29,8.37S33.65,22.89,34.77,22.62s3.12-5.44,2.58-5.93S5.87-.41,3.93,0Z"/>
<path class="cls-1" d="M109.38,0c1.83.39,4.87,7.45,3.64,8.36S79.66,22.89,78.53,22.62,75.41,17.18,76,16.69,107.43-.41,109.38,0Z"/><line class="cls-4" x1="56.65" y1="30.32" x2="56.65" y2="40.42"/>
<path class="cls-5" d="M68.62,55.57c-.87.66-23.1.94-23.94,0-.39-.43-.16-3.41.33-6.61.07-.46.14-.92.22-1.37.59-3.38,1.41-6.62,2.05-7,1.34-.73,18-.41,18.74,0,.35.2,1.17,3.5,1.83,7,.08.45.17.91.25,1.37C68.67,52.22,69,55.27,68.62,55.57Z"/>
<path class="cls-6" d="M68.1,49H45c.07-.46.14-.92.22-1.37H67.85C67.93,48,68,48.5,68.1,49Z"/>
</svg>