<svg id="Layer_1" data-name="Layer 1" xmlns="http://www.w3.org/2000/svg" viewBox="0 0 107.26 36.45"><defs><style>.cls-1{fill:none;stroke:#23134a;stroke-linecap:round;stroke-miterlimit:10;stroke-width:3.65px;}.cls-2{fill:#23134a;}.cls-3{opacity:0.5;}.cls-4{fill:#f37272;}</style></defs>
<path class="cls-1" d="M42.92,34.63C53,34.63,53.51,22.28,53.51,15"/>
<path class="cls-1" d="M64.1,34.63C54,34.63,53.51,22.28,53.51,15"/>
<path class="cls-2" d="M79.46,2.45A14,14,0,0,0,81,8.31c5.84,10,21.37,5.31,21.2-6.1v0A2.4,2.4,0,0,0,99.8,0H81.87A2.42,2.42,0,0,0,79.46,2.45Z"/>
<path class="cls-2" d="M53.51,7.91c-5.84.57-10.59-.09-10.59,3.58s7.53,7.44,10.59,7.44S64.1,15.17,64.1,11.49,59.72,7.29,53.51,7.91Z"/><g class="cls-3">
<path class="cls-4" d="M13.82,17.56c-2.28,3.27-5.67,5.41-9.22,7A17.38,17.38,0,0,1,.86,25.79.73.73,0,0,1,0,25.2a.71.71,0,0,1,.14-.57A16.64,16.64,0,0,1,3,21.87a29.14,29.14,0,0,1,10.16-5.26.64.64,0,0,1,.7.95Z"/></g><g class="cls-3">
<path class="cls-4" d="M22.62,20.48a78.52,78.52,0,0,1-14,8.91,48.06,48.06,0,0,1-5.12,2.25.7.7,0,0,1-.89-.42.68.68,0,0,1,.12-.69,35.52,35.52,0,0,1,8.89-6.93,34.39,34.39,0,0,1,10.49-4.2.61.61,0,0,1,.48,1.08Z"/></g><g class="cls-3">
<path class="cls-4" d="M24.72,25.31a25.47,25.47,0,0,1-10.1,7.45A17.33,17.33,0,0,1,10.51,34a.71.71,0,0,1-.81-.61.7.7,0,0,1,.18-.59A23.49,23.49,0,0,1,13,30a34.73,34.73,0,0,1,11-5.66.63.63,0,0,1,.67,1Z"/></g><g class="cls-3">
<path class="cls-4" d="M96.23,17.56C94,20.83,90.56,23,87,24.6a17.65,17.65,0,0,1-3.75,1.19.72.72,0,0,1-.84-.59.74.74,0,0,1,.13-.57,17,17,0,0,1,2.81-2.76,29.19,29.19,0,0,1,10.17-5.26.63.63,0,0,1,.69.95Z"/></g><g class="cls-3">
<path class="cls-4" d="M105,20.48a79,79,0,0,1-14,8.91A48.8,48.8,0,0,1,86,31.64a.7.7,0,0,1-.78-1.11,35.39,35.39,0,0,1,8.9-6.93,34.33,34.33,0,0,1,10.48-4.2.62.62,0,0,1,.49,1.08Z"/></g><g class="cls-3">
<path class="cls-4" d="M107.14,25.31A25.5,25.5,0,0,1,97,32.76,17.39,17.39,0,0,1,92.93,34a.72.72,0,0,1-.82-.61.74.74,0,0,1,.18-.59A23.56,23.56,0,0,1,95.45,30a34.58,34.58,0,0,1,11-5.66.63.63,0,0,1,.68,1Z"/></g>
<path class="cls-2" d="M4.49,2.45A13.84,13.84,0,0,0,6,8.31c5.83,10,21.37,5.31,21.19-6.1v0A2.39,2.39,0,0,0,24.83,0H6.9A2.41,2.41,0,0,0,4.49,2.45Z"/>
</svg>